<?xml version="1.0" encoding="UTF-8" standalone="no"?>
<!-- Generator: Adobe Illustrator 25.1.0, SVG Export Plug-In . SVG Version: 6.00 Build 0)  -->

<svg
   xmlns:dc="http://purl.org/dc/elements/1.1/"
   xmlns:cc="http://creativecommons.org/ns#"
   xmlns:rdf="http://www.w3.org/1999/02/22-rdf-syntax-ns#"
   xmlns:svg="http://www.w3.org/2000/svg"
   xmlns="http://www.w3.org/2000/svg"
   xmlns:sodipodi="http://sodipodi.sourceforge.net/DTD/sodipodi-0.dtd"
   xmlns:inkscape="http://www.inkscape.org/namespaces/inkscape"
   version="1.1"
   id="Calque_1"
   x="0px"
   y="0px"
   viewBox="0 0 135 135"
   xml:space="preserve"
   sodipodi:docname="icon.svg"
   inkscape:version="0.92.3 (2405546, 2018-03-11)"
   width="135"
   height="135"><title
   id="title834">Logo CDI-Technologies</title><metadata
   id="metadata74"><rdf:RDF><cc:Work
       rdf:about=""><dc:format>image/svg+xml</dc:format><dc:type
         rdf:resource="http://purl.org/dc/dcmitype/StillImage" /><dc:title>Logo CDI-Technologies</dc:title><dc:rights><cc:Agent><dc:title>CDI-Technologies</dc:title></cc:Agent></dc:rights><dc:contributor><cc:Agent><dc:title></dc:title></cc:Agent></dc:contributor><dc:description>https://cditech.fr/</dc:description></cc:Work></rdf:RDF></metadata><defs
   id="defs72" /><sodipodi:namedview
   pagecolor="#ffffff"
   bordercolor="#666666"
   borderopacity="1"
   objecttolerance="10"
   gridtolerance="10"
   guidetolerance="10"
   inkscape:pageopacity="0"
   inkscape:pageshadow="2"
   inkscape:window-width="1920"
   inkscape:window-height="1017"
   id="namedview70"
   showgrid="false"
   inkscape:zoom="1.2610608"
   inkscape:cx="-3.1719299"
   inkscape:cy="71.367498"
   inkscape:window-x="-8"
   inkscape:window-y="-8"
   inkscape:window-maximized="1"
   inkscape:current-layer="Calque_1"
   fit-margin-top="0"
   fit-margin-left="0"
   fit-margin-right="0"
   fit-margin-bottom="0" />
<style
   type="text/css"
   id="style2">
	.st0{fill:#2FA8E1;}
	.st1{fill:#FFFFFF;}
	.st2{fill:url(#SVGID_1_);}
	.st3{fill:url(#SVGID_2_);}
	.st4{fill:#82C0D7;}
	.st5{fill:url(#SVGID_3_);}
	.st6{fill:#C6E2F5;}
	.st7{fill:#CED320;}
</style>
<path
   class="st0"
   d="m 19.892,53.073 c -1.051,0 -2.103,-0.267 -3.04,-0.802 L 3.1,44.434 C 1.188,43.345 0,41.301 0,39.1 V 23.521 C 0,21.32 1.188,19.276 3.1,18.187 L 16.852,10.35 c 1.875,-1.069 4.204,-1.069 6.08,0 l 13.752,7.837 c 1.913,1.09 3.1,3.134 3.1,5.334 V 39.1 c 0,2.201 -1.188,4.245 -3.1,5.334 l -13.752,7.837 c -0.937,0.534 -1.989,0.802 -3.04,0.802 z m 0,-39.756 c -0.406,0 -0.811,0.103 -1.173,0.309 L 4.967,21.463 c -0.738,0.42 -1.196,1.209 -1.196,2.059 v 15.579 c 0,0.849 0.458,1.638 1.196,2.059 l 13.753,7.837 c 0.723,0.412 1.623,0.413 2.345,0 L 34.818,41.16 c 0.738,-0.42 1.196,-1.209 1.196,-2.059 v -15.58 c 0,-0.849 -0.458,-1.638 -1.196,-2.059 L 21.066,13.625 C 20.704,13.42 20.298,13.317 19.892,13.317 Z"
   id="path4"
   inkscape:connector-curvature="0"
   style="fill:#2fa8e1" />
<g
   id="g15"
   transform="translate(0,-24.315)">
	<path
   class="st1"
   d="m 24.541,66.359 v 50.734 c 0,3.337 1.78,6.42 4.67,8.088 l 43.937,25.367 c 2.89,1.668 6.45,1.668 9.339,0 l 43.937,-25.367 c 2.89,-1.668 4.67,-4.752 4.67,-8.088 V 66.359 c 0,-3.337 -1.78,-6.42 -4.67,-8.088 L 82.487,32.904 c -2.89,-1.668 -6.45,-1.668 -9.339,0 L 29.21,58.271 c -2.889,1.669 -4.669,4.752 -4.669,8.088 z"
   id="path6"
   inkscape:connector-curvature="0"
   style="fill:#ffffff" />
	<linearGradient
   id="SVGID_1_"
   gradientUnits="userSpaceOnUse"
   x1="34.073299"
   y1="135.47"
   x2="121.5606"
   y2="47.9828">
		<stop
   offset="0"
   style="stop-color:#009CDD"
   id="stop8" />
		<stop
   offset="1"
   style="stop-color:#B7D5C1"
   id="stop10" />
	</linearGradient>
	<path
   class="st2"
   d="m 77.817,155.315 c -2.223,0 -4.446,-0.572 -6.43,-1.718 L 27.45,128.23 c -3.966,-2.289 -6.431,-6.557 -6.431,-11.137 V 66.359 c 0,-4.58 2.464,-8.848 6.431,-11.137 L 71.387,29.855 c 3.967,-2.291 8.895,-2.291 12.86,0 l 43.937,25.367 c 3.966,2.289 6.43,6.557 6.43,11.137 v 50.734 c 0,4.58 -2.464,8.848 -6.43,11.137 l -43.937,25.367 c -1.983,1.145 -4.207,1.718 -6.43,1.718 z m 0,-120.139 c -1.006,0 -2.012,0.259 -2.909,0.777 L 30.971,61.321 c -1.794,1.036 -2.909,2.966 -2.909,5.039 v 50.734 c 0,2.072 1.115,4.003 2.909,5.039 L 74.908,147.5 c 1.795,1.035 4.024,1.035 5.819,0 l 43.937,-25.367 c 1.794,-1.036 2.909,-2.967 2.909,-5.039 V 66.359 c 0,-2.072 -1.114,-4.003 -2.909,-5.039 L 80.726,35.953 c -0.897,-0.518 -1.903,-0.777 -2.909,-0.777 z"
   id="path13"
   inkscape:connector-curvature="0"
   style="fill:url(#SVGID_1_)" />
</g>
<linearGradient
   id="SVGID_2_"
   gradientUnits="userSpaceOnUse"
   x1="91.149696"
   y1="119.0147"
   x2="91.149696"
   y2="54.184502"
   gradientTransform="translate(0,-24.315)">
	<stop
   offset="0.0782"
   style="stop-color:#009CDD"
   id="stop17" />
	<stop
   offset="0.9271"
   style="stop-color:#BCDCE5"
   id="stop19" />
</linearGradient>
<path
   class="st3"
   d="M 99.61,94.7 H 82.69 c -1.224,0 -2.217,-0.931 -2.217,-2.08 V 31.952 c 0,-1.546 1.734,-2.552 3.209,-1.86 l 16.92,7.937 c 0.751,0.352 1.226,1.073 1.226,1.86 v 52.73 c -0.001,1.149 -0.994,2.081 -2.218,2.081 z"
   id="path22"
   inkscape:connector-curvature="0"
   style="fill:url(#SVGID_2_)" />
<path
   class="st4"
   d="M 84.785,103.241 H 67.618 c -2.336,0 -4.229,-1.893 -4.229,-4.229 V 62.627 c 0,-2.336 1.893,-4.229 4.229,-4.229 h 17.167 c 2.336,0 4.229,1.893 4.229,4.229 v 36.386 c 0,2.335 -1.893,4.228 -4.229,4.228 z"
   id="path24"
   inkscape:connector-curvature="0"
   style="fill:#82c0d7" />
<g
   id="g33"
   transform="translate(0,-24.315)">
	<linearGradient
   id="SVGID_3_"
   gradientUnits="userSpaceOnUse"
   x1="52.712399"
   y1="116.8793"
   x2="52.712399"
   y2="68.961403">
		<stop
   offset="3.229374e-07"
   style="stop-color:#07539B"
   id="stop26" />
		<stop
   offset="1"
   style="stop-color:#49AEE3"
   id="stop28" />
	</linearGradient>
	<path
   class="st5"
   d="M 57.788,116.879 H 47.637 c -0.735,0 -1.331,-0.497 -1.331,-1.109 V 76.84 c 0,-0.337 0.184,-0.656 0.499,-0.866 l 10.151,-6.767 c 0.871,-0.581 2.162,-0.064 2.162,0.866 v 45.698 c 10e-4,0.612 -0.595,1.108 -1.33,1.108 z"
   id="path31"
   inkscape:connector-curvature="0"
   style="fill:url(#SVGID_3_)" />
</g>
<g
   id="g37"
   transform="translate(0,-24.315)">
	<path
   class="st6"
   d="m 84.785,82.713 h -4.313 v 34.222 c 0,1.149 0.993,2.08 2.217,2.08 h 6.325 V 86.942 c 0,-2.336 -1.893,-4.229 -4.229,-4.229 z"
   id="path35"
   inkscape:connector-curvature="0"
   style="fill:#c6e2f5" />
</g>








</svg>