<?xml version="1.0" encoding="UTF-8" standalone="no"?>
<!-- Generator: Adobe Illustrator 25.1.0, SVG Export Plug-In . SVG Version: 6.00 Build 0)  -->

<svg
   xmlns:dc="http://purl.org/dc/elements/1.1/"
   xmlns:cc="http://creativecommons.org/ns#"
   xmlns:rdf="http://www.w3.org/1999/02/22-rdf-syntax-ns#"
   xmlns:svg="http://www.w3.org/2000/svg"
   xmlns="http://www.w3.org/2000/svg"
   xmlns:sodipodi="http://sodipodi.sourceforge.net/DTD/sodipodi-0.dtd"
   xmlns:inkscape="http://www.inkscape.org/namespaces/inkscape"
   version="1.1"
   id="Calque_1"
   x="0px"
   y="0px"
   viewBox="0 0 283.095 167.895"
   style="enable-background:new 0 0 283.095 167.895;"
   xml:space="preserve"
   sodipodi:docname="logo_cdi.svg"
   inkscape:version="0.92.3 (2405546, 2018-03-11)"><title
   id="title4584">Logo CDI-Technologies</title><metadata
   id="metadata74"><rdf:RDF><cc:Work
       rdf:about=""><dc:format>image/svg+xml</dc:format><dc:type
         rdf:resource="http://purl.org/dc/dcmitype/StillImage" /><dc:title>Logo CDI-Technologies</dc:title><dc:rights><cc:Agent><dc:title>CDI-Technologies</dc:title></cc:Agent></dc:rights><dc:contributor><cc:Agent><dc:title>https://cditech.fr/</dc:title></cc:Agent></dc:contributor></cc:Work></rdf:RDF></metadata><defs
   id="defs72" /><sodipodi:namedview
   pagecolor="#ffffff"
   bordercolor="#666666"
   borderopacity="1"
   objecttolerance="10"
   gridtolerance="10"
   guidetolerance="10"
   inkscape:pageopacity="0"
   inkscape:pageshadow="2"
   inkscape:window-width="1920"
   inkscape:window-height="1017"
   id="namedview70"
   showgrid="false"
   inkscape:zoom="1.2610608"
   inkscape:cx="141.5475"
   inkscape:cy="83.947502"
   inkscape:window-x="-8"
   inkscape:window-y="-8"
   inkscape:window-maximized="1"
   inkscape:current-layer="Calque_1" />
<style
   type="text/css"
   id="style2">
	.st0{fill:#2FA8E1;}
	.st1{fill:#FFFFFF;}
	.st2{fill:url(#SVGID_1_);}
	.st3{fill:url(#SVGID_2_);}
	.st4{fill:#82C0D7;}
	.st5{fill:url(#SVGID_3_);}
	.st6{fill:#C6E2F5;}
	.st7{fill:#CED320;}
</style>
<path
   class="st0"
   d="M19.892,77.388c-1.051,0-2.103-0.267-3.04-0.802L3.1,68.749C1.188,67.66,0,65.616,0,63.415V47.836  c0-2.201,1.188-4.245,3.1-5.334l13.752-7.837c1.875-1.069,4.204-1.069,6.08,0l13.752,7.837c1.913,1.09,3.1,3.134,3.1,5.334v15.579  c0,2.201-1.188,4.245-3.1,5.334l-13.752,7.837C21.995,77.12,20.943,77.388,19.892,77.388z M19.892,37.632  c-0.406,0-0.811,0.103-1.173,0.309L4.967,45.778c-0.738,0.42-1.196,1.209-1.196,2.059v15.579c0,0.849,0.458,1.638,1.196,2.059  l13.753,7.837c0.723,0.412,1.623,0.413,2.345,0l13.753-7.837c0.738-0.42,1.196-1.209,1.196-2.059V47.836  c0-0.849-0.458-1.638-1.196-2.059l-13.752-7.837C20.704,37.735,20.298,37.632,19.892,37.632z"
   id="path4" />
<g
   id="g15">
	<path
   class="st1"
   d="M24.541,66.359v50.734c0,3.337,1.78,6.42,4.67,8.088l43.937,25.367c2.89,1.668,6.45,1.668,9.339,0   l43.937-25.367c2.89-1.668,4.67-4.752,4.67-8.088V66.359c0-3.337-1.78-6.42-4.67-8.088L82.487,32.904   c-2.89-1.668-6.45-1.668-9.339,0L29.21,58.271C26.321,59.94,24.541,63.023,24.541,66.359z"
   id="path6" />
	<linearGradient
   id="SVGID_1_"
   gradientUnits="userSpaceOnUse"
   x1="34.0733"
   y1="135.47"
   x2="121.5606"
   y2="47.9828">
		<stop
   offset="0"
   style="stop-color:#009CDD"
   id="stop8" />
		<stop
   offset="1"
   style="stop-color:#B7D5C1"
   id="stop10" />
	</linearGradient>
	<path
   class="st2"
   d="M77.817,155.315c-2.223,0-4.446-0.572-6.43-1.718L27.45,128.23c-3.966-2.289-6.431-6.557-6.431-11.137V66.359   c0-4.58,2.464-8.848,6.431-11.137l43.937-25.367c3.967-2.291,8.895-2.291,12.86,0l43.937,25.367   c3.966,2.289,6.43,6.557,6.43,11.137v50.734c0,4.58-2.464,8.848-6.43,11.137l-43.937,25.367   C82.264,154.742,80.04,155.315,77.817,155.315z M77.817,35.176c-1.006,0-2.012,0.259-2.909,0.777L30.971,61.321   c-1.794,1.036-2.909,2.966-2.909,5.039v50.734c0,2.072,1.115,4.003,2.909,5.039L74.908,147.5c1.795,1.035,4.024,1.035,5.819,0   l43.937-25.367c1.794-1.036,2.909-2.967,2.909-5.039V66.359c0-2.072-1.114-4.003-2.909-5.039L80.726,35.953   C79.829,35.435,78.823,35.176,77.817,35.176z"
   id="path13" />
</g>
<linearGradient
   id="SVGID_2_"
   gradientUnits="userSpaceOnUse"
   x1="91.1497"
   y1="119.0147"
   x2="91.1497"
   y2="54.1845">
	<stop
   offset="0.0782"
   style="stop-color:#009CDD"
   id="stop17" />
	<stop
   offset="0.9271"
   style="stop-color:#BCDCE5"
   id="stop19" />
</linearGradient>
<path
   class="st3"
   d="M99.61,119.015H82.69c-1.224,0-2.217-0.931-2.217-2.08V56.267c0-1.546,1.734-2.552,3.209-1.86l16.92,7.937  c0.751,0.352,1.226,1.073,1.226,1.86v52.73C101.827,118.083,100.834,119.015,99.61,119.015z"
   id="path22" />
<path
   class="st4"
   d="M84.785,127.556H67.618c-2.336,0-4.229-1.893-4.229-4.229V86.942c0-2.336,1.893-4.229,4.229-4.229h17.167  c2.336,0,4.229,1.893,4.229,4.229v36.386C89.014,125.663,87.121,127.556,84.785,127.556z"
   id="path24" />
<g
   id="g33">
	<linearGradient
   id="SVGID_3_"
   gradientUnits="userSpaceOnUse"
   x1="52.7124"
   y1="116.8793"
   x2="52.7124"
   y2="68.9614">
		<stop
   offset="3.229374e-07"
   style="stop-color:#07539B"
   id="stop26" />
		<stop
   offset="1"
   style="stop-color:#49AEE3"
   id="stop28" />
	</linearGradient>
	<path
   class="st5"
   d="M57.788,116.879H47.637c-0.735,0-1.331-0.497-1.331-1.109V76.84c0-0.337,0.184-0.656,0.499-0.866l10.151-6.767   c0.871-0.581,2.162-0.064,2.162,0.866v45.698C59.119,116.383,58.523,116.879,57.788,116.879z"
   id="path31" />
</g>
<g
   id="g37">
	<path
   class="st6"
   d="M84.785,82.713h-4.313v34.222c0,1.149,0.993,2.08,2.217,2.08h6.325V86.942   C89.014,84.606,87.121,82.713,84.785,82.713z"
   id="path35" />
</g>
<path
   class="st7"
   d="M144.535,14.953V6.534c0-0.826-0.443-1.588-1.161-1.997l-7.432-4.235c-0.706-0.402-1.571-0.402-2.277,0  l-7.432,4.235c-0.718,0.409-1.161,1.171-1.161,1.997v8.419c0,0.826,0.443,1.588,1.161,1.997l7.432,4.235  c0.706,0.402,1.571,0.402,2.277,0l7.432-4.235C144.092,16.541,144.535,15.779,144.535,14.953z"
   id="path39" />
<path
   class="st0"
   d="M127.969,163.492l0-5.673c0-0.557-0.299-1.07-0.782-1.346l-5.008-2.854c-0.475-0.271-1.059-0.271-1.534,0  l-5.008,2.854c-0.484,0.276-0.782,0.789-0.782,1.346v5.673c0,0.557,0.299,1.07,0.782,1.346l5.008,2.854  c0.475,0.271,1.059,0.271,1.534,0l5.008-2.854C127.671,164.562,127.969,164.048,127.969,163.492z"
   id="path41" />
<circle
   class="st7"
   cx="112.504"
   cy="35.734"
   r="2.135"
   id="circle43" />
<circle
   class="st7"
   cx="97.556"
   cy="52.817"
   r="2.135"
   id="circle45" />
<circle
   class="st7"
   cx="121.045"
   cy="27.192"
   r="2.135"
   id="circle47" />
<circle
   class="st0"
   cx="112.504"
   cy="146.775"
   r="2.135"
   id="circle49" />
<g
   id="g57">
	<path
   d="M207.646,48.293c0.85,0.851,1.275,1.854,1.275,3.009s-0.426,2.159-1.275,3.009c-0.426,0.425-0.911,0.744-1.455,0.957   c-0.545,0.213-1.096,0.319-1.654,0.319c-0.558,0-1.096-0.1-1.614-0.299c-0.518-0.199-0.977-0.498-1.375-0.897   c-1.728-1.727-3.646-3.009-5.759-3.846c-2.113-0.837-4.299-1.255-6.557-1.255c-2.339,0-4.551,0.445-6.637,1.335   s-3.906,2.112-5.461,3.667c-1.554,1.555-2.79,3.382-3.706,5.48c-0.917,2.1-1.375,4.358-1.375,6.776   c0,2.312,0.432,4.511,1.295,6.597c0.863,2.086,2.059,3.919,3.587,5.5s3.335,2.843,5.421,3.786c2.086,0.944,4.338,1.429,6.756,1.455   c2.444,0,4.677-0.418,6.696-1.256c2.019-0.837,3.906-2.105,5.66-3.806c0.398-0.398,0.863-0.698,1.395-0.897s1.09-0.299,1.674-0.299   c0.531,0,1.062,0.1,1.595,0.299c0.531,0.199,0.996,0.485,1.395,0.857c0.425,0.425,0.744,0.904,0.957,1.435   c0.212,0.532,0.318,1.076,0.318,1.634c0,0.558-0.106,1.103-0.318,1.634c-0.213,0.532-0.519,0.997-0.917,1.395   c-2.577,2.578-5.454,4.498-8.629,5.76c-3.176,1.262-6.464,1.893-9.865,1.893c-2.338,0-4.604-0.312-6.795-0.937   c-2.192-0.624-4.239-1.495-6.139-2.611c-1.9-1.116-3.634-2.464-5.201-4.045c-1.568-1.581-2.91-3.334-4.025-5.261   c-1.116-1.926-1.98-3.992-2.591-6.198c-0.612-2.206-0.917-4.49-0.917-6.855c0-2.285,0.292-4.51,0.877-6.676   c0.584-2.166,1.415-4.205,2.491-6.118s2.385-3.68,3.926-5.301c1.541-1.621,3.269-3.016,5.182-4.185   c1.913-1.169,3.999-2.079,6.258-2.73c2.258-0.65,4.637-0.976,7.134-0.976c3.349,0,6.604,0.638,9.766,1.913   S205.068,45.743,207.646,48.293z"
   id="path51" />
	<path
   d="M221.435,92.017c-0.584,0-1.143-0.113-1.674-0.339c-0.531-0.226-0.99-0.524-1.375-0.896   c-0.386-0.372-0.691-0.824-0.917-1.355c-0.226-0.531-0.338-1.089-0.338-1.674V45.265c0-0.611,0.112-1.176,0.338-1.694   s0.531-0.97,0.917-1.355c0.385-0.385,0.844-0.684,1.375-0.897c0.531-0.212,1.09-0.319,1.674-0.319h13.99   c2.338,0,4.604,0.306,6.796,0.917s4.245,1.475,6.158,2.591c1.913,1.116,3.667,2.458,5.261,4.025   c1.595,1.568,2.963,3.295,4.105,5.182s2.026,3.919,2.651,6.098c0.624,2.179,0.937,4.438,0.937,6.776   c0,3.507-0.691,6.803-2.073,9.885c-1.382,3.083-3.255,5.779-5.62,8.091c-2.365,2.312-5.115,4.132-8.25,5.461   c-3.136,1.329-6.457,1.993-9.965,1.993h-13.95H221.435z M225.78,49.649v33.72h9.845c2.365,0,4.577-0.458,6.637-1.375   c2.059-0.917,3.866-2.139,5.421-3.667s2.776-3.302,3.667-5.321c0.89-2.019,1.335-4.131,1.335-6.337   c0-2.232-0.445-4.371-1.335-6.417c-0.891-2.046-2.112-3.853-3.667-5.421c-1.555-1.567-3.362-2.823-5.421-3.767   c-2.06-0.943-4.271-1.415-6.637-1.415H225.78z"
   id="path53" />
	<path
   d="M277.516,87.753c0,0.584-0.113,1.143-0.339,1.674c-0.226,0.532-0.538,0.983-0.937,1.355s-0.856,0.671-1.375,0.896   c-0.518,0.226-1.083,0.339-1.694,0.339c-0.584,0-1.143-0.113-1.674-0.339c-0.531-0.226-0.99-0.524-1.375-0.896   c-0.386-0.372-0.691-0.824-0.917-1.355c-0.226-0.531-0.338-1.089-0.338-1.674V45.265c0-0.611,0.112-1.176,0.338-1.694   s0.531-0.97,0.917-1.355c0.385-0.385,0.844-0.684,1.375-0.897c0.531-0.212,1.09-0.319,1.674-0.319c0.611,0,1.177,0.106,1.694,0.319   c0.519,0.213,0.977,0.512,1.375,0.897c0.398,0.385,0.711,0.837,0.937,1.355s0.339,1.083,0.339,1.694V87.753z"
   id="path55" />
</g>
<g
   id="g67">
	<path
   d="M168.651,105.339h13.521c0.341,0,0.641,0.118,0.896,0.355s0.384,0.526,0.384,0.868s-0.118,0.631-0.355,0.868   s-0.546,0.355-0.925,0.355h-13.521v11.13c0,1.519,0.289,2.932,0.868,4.241c0.579,1.309,1.376,2.447,2.391,3.415   c1.016,0.968,2.201,1.728,3.559,2.277c1.356,0.551,2.812,0.825,4.369,0.825c1.403,0,2.699-0.208,3.885-0.626   c1.186-0.417,2.32-1.101,3.401-2.05c0.114-0.113,0.266-0.218,0.456-0.312c0.095-0.038,0.18-0.066,0.256-0.086   c0.075-0.019,0.161-0.028,0.256-0.028c0.285,0,0.531,0.096,0.74,0.285c0.285,0.266,0.403,0.588,0.355,0.968   c-0.047,0.38-0.204,0.702-0.47,0.968c-1.157,1.101-2.495,1.936-4.013,2.505c-1.519,0.568-3.141,0.854-4.867,0.854   c-1.879,0-3.648-0.337-5.309-1.011c-1.661-0.673-3.112-1.599-4.355-2.775c-1.242-1.176-2.22-2.575-2.932-4.198   c-0.711-1.622-1.067-3.373-1.067-5.251V97.169c0-0.359,0.123-0.664,0.37-0.91c0.247-0.247,0.541-0.37,0.883-0.37   c0.36,0,0.654,0.119,0.882,0.356c0.228,0.237,0.342,0.545,0.342,0.924V105.339z"
   id="path59" />
	<path
   d="M195.065,119.713c0.113,1.385,0.47,2.686,1.067,3.899c0.598,1.215,1.38,2.272,2.348,3.174s2.088,1.608,3.359,2.12   c1.271,0.513,2.628,0.769,4.07,0.769c0.797,0,1.589-0.085,2.376-0.256c0.788-0.171,1.542-0.422,2.264-0.755   c0.721-0.331,1.39-0.729,2.006-1.195c0.617-0.465,1.153-0.991,1.608-1.579c0.304-0.247,0.607-0.37,0.911-0.37   c0.057,0,0.109,0.005,0.156,0.014c0.048,0.01,0.1,0.024,0.157,0.043c0.189,0.076,0.369,0.228,0.54,0.455   c0.189,0.209,0.294,0.479,0.313,0.812c0.019,0.332-0.124,0.641-0.427,0.925c-1.139,1.271-2.533,2.32-4.185,3.146   c-1.65,0.825-3.558,1.238-5.721,1.238c-1.879,0-3.639-0.355-5.28-1.067s-3.079-1.684-4.312-2.918   c-1.233-1.232-2.206-2.675-2.917-4.326c-0.712-1.65-1.067-3.416-1.067-5.294c0-1.879,0.355-3.639,1.067-5.28   c0.711-1.641,1.684-3.078,2.917-4.312c1.233-1.232,2.671-2.205,4.312-2.917s3.401-1.067,5.28-1.067   c1.878,0,3.639,0.355,5.279,1.067c1.642,0.712,3.074,1.68,4.299,2.903c1.224,1.224,2.195,2.656,2.917,4.298   c0.721,1.642,1.082,3.392,1.082,5.252c0,0.341-0.109,0.631-0.327,0.867c-0.219,0.238-0.509,0.356-0.868,0.356H195.065z    M216.954,117.606c-0.096-1.423-0.446-2.756-1.054-3.999s-1.409-2.32-2.405-3.23c-0.996-0.911-2.14-1.627-3.43-2.149   c-1.29-0.521-2.666-0.782-4.127-0.782c-1.48,0-2.865,0.261-4.156,0.782c-1.29,0.522-2.424,1.243-3.401,2.163   c-0.978,0.921-1.765,1.998-2.362,3.23c-0.598,1.234-0.944,2.562-1.039,3.985H216.954z"
   id="path61" />
	<path
   d="M225.721,118.403c0,0.02-0.02,0.066-0.058,0.143c0.038,0.038,0.058,0.076,0.058,0.113c0,1.442,0.274,2.828,0.825,4.156   c0.55,1.328,1.305,2.5,2.263,3.515c0.958,1.016,2.092,1.827,3.401,2.434c1.31,0.608,2.723,0.911,4.241,0.911   c1.385,0,2.708-0.232,3.971-0.697c1.262-0.465,2.405-1.182,3.43-2.149c0.151-0.132,0.327-0.256,0.526-0.369   c0.199-0.114,0.403-0.171,0.612-0.171c0.284,0,0.55,0.113,0.797,0.341c0.266,0.247,0.398,0.551,0.398,0.911   s-0.152,0.693-0.455,0.996c-1.12,1.139-2.481,2.026-4.085,2.661c-1.604,0.636-3.269,0.954-4.995,0.954   c-1.841,0-3.577-0.352-5.209-1.054c-1.632-0.701-3.056-1.66-4.27-2.874c-1.215-1.215-2.173-2.638-2.875-4.27   s-1.053-3.368-1.053-5.209l0.057-0.171c-0.038-0.075-0.057-0.143-0.057-0.199c0-1.859,0.351-3.601,1.053-5.223   c0.702-1.623,1.66-3.041,2.875-4.256c1.214-1.214,2.638-2.173,4.27-2.875c1.632-0.701,3.368-1.053,5.209-1.053   c1.727,0,3.392,0.299,4.995,0.896s2.965,1.466,4.085,2.604c0.303,0.304,0.455,0.636,0.455,0.996s-0.143,0.664-0.427,0.911   c-0.247,0.228-0.513,0.341-0.797,0.341c-0.209,0-0.408-0.052-0.598-0.156c-0.19-0.104-0.361-0.223-0.513-0.355   c-1.006-0.93-2.13-1.623-3.373-2.078s-2.548-0.683-3.914-0.683c-1.499,0-2.903,0.294-4.212,0.882   c-1.31,0.589-2.458,1.381-3.444,2.377c-0.987,0.996-1.765,2.158-2.334,3.486C226.005,115.519,225.721,116.923,225.721,118.403z"
   id="path63" />
	<path
   d="M255.521,110.718c0.55-0.854,1.19-1.631,1.921-2.334c0.73-0.701,1.527-1.309,2.391-1.821s1.789-0.906,2.775-1.182   c0.986-0.274,2.011-0.412,3.074-0.412c1.783,0,3.42,0.342,4.91,1.024c1.489,0.684,2.765,1.613,3.828,2.79   c1.062,1.177,1.893,2.552,2.49,4.127s0.896,3.264,0.896,5.066v12.553c0,0.36-0.113,0.659-0.341,0.896   c-0.229,0.237-0.532,0.355-0.911,0.355c-0.323,0-0.603-0.118-0.84-0.355s-0.355-0.536-0.355-0.896v-12.524   c0-1.461-0.232-2.832-0.697-4.113c-0.466-1.28-1.125-2.396-1.979-3.344c-0.854-0.949-1.874-1.703-3.06-2.264   c-1.187-0.559-2.501-0.839-3.942-0.839c-1.442,0-2.78,0.271-4.014,0.811c-1.233,0.541-2.306,1.281-3.216,2.221   c-0.911,0.939-1.623,2.045-2.135,3.315c-0.513,1.271-0.769,2.647-0.769,4.128l-0.028,0.028V130.5c0,0.361-0.119,0.665-0.356,0.911   c-0.237,0.247-0.526,0.37-0.868,0.37s-0.636-0.123-0.882-0.37c-0.247-0.246-0.37-0.55-0.37-0.911V96.372   c0-0.36,0.128-0.664,0.384-0.911c0.257-0.247,0.546-0.37,0.868-0.37c0.36,0,0.655,0.124,0.883,0.37s0.342,0.55,0.342,0.911V110.718   z"
   id="path65" />
</g>
</svg>